<svg xmlns="http://www.w3.org/2000/svg" xmlns:xlink="http://www.w3.org/1999/xlink" viewBox="0 0 50 50"><defs><linearGradient id="a" x1="-1159.46" y1="1074.71" x2="-1158.2" y2="1074.71" gradientTransform="matrix(11.92, 0, 0, -11.92, 13837.52, 12834.89)" gradientUnits="userSpaceOnUse"><stop offset="0" stop-color="#fff"/><stop offset="1" stop-color="#b3b3b3"/></linearGradient><linearGradient id="b" x1="-917.33" y1="953.29" x2="-916.33" y2="953.29" gradientTransform="matrix(3, 0, 0, -3, 2759, 2864.37)" xlink:href="#a"/><linearGradient id="c" x1="-917" y1="953.3" x2="-916" y2="953.3" gradientTransform="matrix(3, 0, 0, -3, 2764, 2864.37)" xlink:href="#a"/><linearGradient id="d" x1="-915" y1="953.3" x2="-914" y2="953.3" gradientTransform="matrix(3, 0, 0, -3, 2764, 2864.37)" xlink:href="#a"/><clipPath id="e"><path d="M6.33,0A2.41,2.41,0,0,0,4,2.47v37.1A2.41,2.41,0,0,0,6.33,42H43.67A2.41,2.41,0,0,0,46,39.57V2.47A2.41,2.41,0,0,0,43.67,0Z" fill="none"/></clipPath><linearGradient id="f" x1="-1214.03" y1="1102.36" x2="-1212.86" y2="1102.36" gradientTransform="matrix(36, 0, 0, -36, 43708.98, 39706)" gradientUnits="userSpaceOnUse"><stop offset="0" stop-color="#42e0ff"/><stop offset="1" stop-color="#43bcff"/></linearGradient><clipPath id="g"><path d="M21.63,21.17a3,3,0,0,1,2.87-1.72,3,3,0,0,1,2.87,1.72,4.4,4.4,0,0,1,.4,1.79H21.23a4.42,4.42,0,0,1,.4-1.79M17,24.48C17,31.21,20.9,33,25,33a8.34,8.34,0,0,0,6.54-2.62l-2.61-2.45A4.85,4.85,0,0,1,25,29.49a3.49,3.49,0,0,1-3.77-3.7H32V23.94C32,19.38,29.29,16,24.5,16,20,16,17,19.06,17,24.48" fill="none"/></clipPath><mask id="h" x="17" y="16" width="15" height="17" maskUnits="userSpaceOnUse"><rect x="17" y="16" width="15" height="17" fill="url(#a)"/></mask><linearGradient id="i" x1="-1159.46" y1="1074.71" x2="-1158.2" y2="1074.71" gradientTransform="matrix(11.92, 0, 0, -11.92, 13837.52, 12834.89)" gradientUnits="userSpaceOnUse"><stop offset="0" stop-color="#fff"/><stop offset="1" stop-color="#fff"/></linearGradient><clipPath id="j"><path d="M7,4.5A1.5,1.5,0,1,0,8.5,3,1.5,1.5,0,0,0,7,4.5" fill="none"/></clipPath><mask id="k" x="7" y="3" width="3" height="3" maskUnits="userSpaceOnUse"><rect x="7" y="3" width="3" height="3" fill="url(#b)"/></mask><linearGradient id="l" x1="-917.33" y1="953.29" x2="-916.33" y2="953.29" gradientTransform="matrix(3, 0, 0, -3, 2759, 2864.37)" xlink:href="#i"/><clipPath id="m"><path d="M13,4.46A1.5,1.5,0,1,0,14.5,3,1.48,1.48,0,0,0,13,4.46" fill="none"/></clipPath><mask id="n" x="13" y="3" width="3" height="2.93" maskUnits="userSpaceOnUse"><rect x="13" y="3" width="3" height="2.93" fill="url(#c)"/></mask><linearGradient id="o" x1="-917" y1="953.3" x2="-916" y2="953.3" gradientTransform="matrix(3, 0, 0, -3, 2764, 2864.37)" xlink:href="#i"/><clipPath id="p"><path d="M19,4.46A1.5,1.5,0,1,0,20.5,3,1.48,1.48,0,0,0,19,4.46" fill="none"/></clipPath><mask id="q" x="19" y="3" width="3" height="2.93" maskUnits="userSpaceOnUse"><rect x="19" y="3" width="3" height="2.93" fill="url(#d)"/></mask><linearGradient id="r" x1="-915" y1="953.3" x2="-914" y2="953.3" gradientTransform="matrix(3, 0, 0, -3, 2764, 2864.37)" xlink:href="#i"/></defs><title>jz</title><path d="M47.73,50H2.27A2.28,2.28,0,0,1,0,47.69,36.53,36.53,0,0,1,36.36,11H47.73A2.28,2.28,0,0,1,50,13.29v34.4A2.28,2.28,0,0,1,47.73,50" fill="#d2f3ff"/><g clip-path="url(#e)"><rect x="4" width="42" height="42.05" fill="url(#f)"/></g><g clip-path="url(#g)"><g mask="url(#h)"><rect x="17" y="16" width="15" height="17" fill="url(#i)"/></g></g><path d="M46,2.33A2.33,2.33,0,0,0,43.67,0H6.33A2.33,2.33,0,0,0,4,2.33V9H46Z" fill="#78e2ff"/><g clip-path="url(#j)"><g mask="url(#k)"><rect x="7" y="3" width="3" height="3" fill="url(#l)"/></g></g><g clip-path="url(#m)"><g mask="url(#n)"><rect x="13" y="3" width="3" height="2.93" fill="url(#o)"/></g></g><g clip-path="url(#p)"><g mask="url(#q)"><rect x="19" y="3" width="3" height="2.93" fill="url(#r)"/></g></g></svg>